<svg xmlns="http://www.w3.org/2000/svg" width="423" height="383" viewBox="0 0 423 383">
<path d="M123.00,338.50 L122.00,338.50 L121.00,338.50 L120.00,338.50 L119.00,338.50 L118.00,338.50 L117.00,338.50 L116.00,338.50 L115.00,338.50 L114.00,338.50 L113.00,338.50 L112.00,338.50 L111.00,338.50 L110.00,338.50 L109.00,338.50 L108.00,338.50 L107.00,338.50 L106.00,338.50 L105.00,338.50 L104.00,338.50 L103.00,338.50 L102.00,338.50 L101.00,338.50 L100.00,338.50 L99.00,338.50 L98.00,338.50 L97.00,338.50 L96.00,338.50 L95.00,338.50 L94.00,338.50 L93.00,338.50 L92.00,338.50 L91.00,338.50 L90.00,338.50 L89.00,338.50 L88.00,338.50 L87.00,338.50 L86.00,338.50 L85.00,338.50 L84.00,338.50 L83.00,338.50 L82.00,338.50 L81.00,338.50 L80.00,338.50 L79.00,338.50 L78.00,338.50 L77.00,338.50 L76.00,338.50 L75.00,338.50 L74.00,338.50 L73.00,338.50 L72.00,338.50 L71.00,338.50 L70.00,338.50 L69.00,338.50 L68.00,338.50 L67.00,338.50 L66.00,338.50 L65.00,338.50 L64.00,338.50 L63.00,338.50 L62.00,338.50 L61.00,338.50 L60.00,338.50 L59.00,338.50 L58.00,338.50 L57.00,338.50 L56.00,338.50 L55.00,338.50 L54.00,338.50 L53.00,338.50 L52.00,338.50 L51.00,338.50 L50.00,338.50 L49.50,338.00 L49.50,337.00 L50.00,336.50 L50.50,336.00 L50.50,335.00 L50.50,334.00 L51.00,333.50 L51.50,333.00 L51.50,332.00 L51.50,331.00 L51.50,330.00 L52.00,329.50 L52.50,329.00 L52.50,328.00 L52.50,327.00 L52.50,326.00 L53.00,325.50 L53.50,325.00 L53.50,324.00 L53.50,323.00 L53.50,322.00 L54.00,321.50 L54.50,321.00 L54.50,320.00 L54.50,319.00 L54.50,318.00 L55.00,317.50 L55.50,317.00 L55.50,316.00 L55.50,315.00 L55.50,314.00 L55.50,313.00 L56.00,312.50 L56.50,312.00 L56.50,311.00 L56.50,310.00 L57.00,309.50 L57.50,309.00 L57.50,308.00 L57.50,307.00 L57.50,306.00 L58.00,305.50 L58.50,305.00 L58.50,304.00 L58.50,303.00 L58.50,302.00 L59.00,301.50 L59.50,301.00 L59.50,300.00 L59.50,299.00 L59.50,298.00 L60.00,297.50 L60.50,297.00 L60.50,296.00 L60.50,295.00 L60.50,294.00 L61.00,293.50 L61.50,293.00 L61.50,292.00 L61.50,291.00 L61.50,290.00 L61.50,289.00 L62.00,288.50 L62.50,288.00 L62.50,287.00 L62.50,286.00 L62.50,285.00 L63.00,284.50 L63.50,284.00 L63.50,283.00 L63.50,282.00 L63.50,281.00 L64.00,280.50 L64.50,280.00 L64.50,279.00 L64.50,278.00 L64.50,277.00 L65.00,276.50 L65.50,276.00 L65.50,275.00 L65.50,274.00 L65.50,273.00 L66.00,272.50 L66.50,272.00 L66.50,271.00 L66.50,270.00 L67.00,269.50 L67.50,269.00 L67.50,268.00 L67.50,267.00 L67.50,266.00 L67.50,265.00 L68.00,264.50 L68.50,264.00 L68.50,263.00 L68.50,262.00 L68.50,261.00 L69.00,260.50 L69.50,260.00 L69.50,259.00 L69.50,258.00 L69.50,257.00 L70.00,256.50 L70.50,256.00 L70.50,255.00 L70.50,254.00 L70.50,253.00 L71.00,252.50 L71.50,252.00 L71.50,251.00 L71.50,250.00 L71.50,249.00 L72.00,248.50 L72.50,248.00 L72.50,247.00 L72.50,246.00 L72.50,245.00 L73.00,244.50 L73.50,244.00 L73.50,243.00 L73.50,242.00 L73.50,241.00 L74.00,240.50 L74.50,240.00 L74.50,239.00 L74.50,238.00 L74.50,237.00 L74.50,236.00 L75.00,235.50 L75.50,235.00 L75.50,234.00 L75.50,233.00 L75.50,232.00 L76.00,231.50 L76.50,231.00 L76.50,230.00 L76.50,229.00 L76.50,228.00 L77.00,227.50 L77.50,227.00 L77.50,226.00 L77.50,225.00 L77.50,224.00 L78.00,223.50 L78.50,223.00 L78.50,222.00 L78.50,221.00 L78.50,220.00 L79.00,219.50 L79.50,219.00 L79.50,218.00 L79.50,217.00 L79.50,216.00 L80.00,215.50 L80.50,215.00 L80.50,214.00 L80.50,213.00 L81.00,212.50 L81.50,212.00 L81.50,211.00 L81.50,210.00 L81.50,209.00 L82.00,208.50 L82.50,208.00 L82.50,207.00 L83.00,206.50 L83.50,206.00 L83.50,205.00 L83.50,204.00 L84.00,203.50 L84.50,203.00 L84.50,202.00 L85.00,201.50 L85.50,201.00 L85.50,200.00 L86.00,199.50 L86.50,199.00 L86.50,198.00 L87.00,197.50 L87.50,197.00 L87.50,196.00 L88.00,195.50 L88.50,195.00 L89.00,194.50 L89.50,194.00 L89.50,193.00 L90.00,192.50 L90.50,192.00 L90.50,191.00 L91.00,190.50 L91.50,190.00 L92.00,189.50 L92.50,189.00 L93.00,188.50 L93.50,188.00 L93.50,187.00 L94.00,186.50 L94.50,186.00 L95.00,185.50 L95.50,185.00 L96.00,184.50 L96.50,184.00 L97.00,183.50 L97.50,183.00 L98.00,182.50 L98.50,182.00 L99.00,181.50 L99.50,181.00 L100.00,180.50 L100.50,180.00 L101.00,179.50 L101.50,179.00 L102.00,178.50 L102.50,178.00 L103.00,177.50 L103.50,177.00 L104.00,176.50 L104.50,176.00 L105.00,175.50 L105.50,175.00 L106.00,174.50 L106.50,174.00 L107.00,173.50 L107.50,173.00 L108.00,172.50 L109.00,172.50 L109.50,172.00 L110.00,171.50 L110.50,171.00 L111.00,170.50 L112.00,170.50 L112.50,170.00 L113.00,169.50 L113.50,169.00 L114.00,168.50 L115.00,168.50 L115.50,168.00 L116.00,167.50 L117.00,167.50 L117.50,167.00 L118.00,166.50 L119.00,166.50 L119.50,166.00 L120.00,165.50 L121.00,165.50 L121.50,165.00 L122.00,164.50 L123.00,164.50 L123.50,164.00 L124.00,163.50 L125.00,163.50 L126.00,163.50 L126.50,163.00 L127.00,162.50 L128.00,162.50 L129.00,162.50 L129.50,162.00 L130.00,161.50 L131.00,161.50 L132.00,161.50 L132.50,161.00 L133.00,160.50 L134.00,160.50 L135.00,160.50 L136.00,160.50 L137.00,160.50 L137.50,160.00 L138.00,159.50 L139.00,159.50 L140.00,159.50 L141.00,159.50 L142.00,159.50 L143.00,159.50 L143.50,159.00 L144.00,158.50 L145.00,158.50 L146.00,158.50 L147.00,158.50 L148.00,158.50 L149.00,158.50 L150.00,158.50 L151.00,158.50 L152.00,158.50 L153.00,158.50 L154.00,158.50 L155.00,158.50 L156.00,158.50 L157.00,158.50 L158.00,158.50 L159.00,158.50 L160.00,158.50 L161.00,158.50 L162.00,158.50 L163.00,158.50 L164.00,158.50 L165.00,158.50 L166.00,158.50 L167.00,158.50 L168.00,158.50 L169.00,158.50 L170.00,158.50 L171.00,158.50 L172.00,158.50 L173.00,158.50 L174.00,158.50 L175.00,158.50 L176.00,158.50 L177.00,158.50 L178.00,158.50 L179.00,158.50 L180.00,158.50 L181.00,158.50 L182.00,158.50 L183.00,158.50 L184.00,158.50 L185.00,158.50 L186.00,158.50 L187.00,158.50 L188.00,158.50 L189.00,158.50 L190.00,158.50 L191.00,158.50 L192.00,158.50 L193.00,158.50 L194.00,158.50 L195.00,158.50 L196.00,158.50 L197.00,158.50 L198.00,158.50 L199.00,158.50 L200.00,158.50 L201.00,158.50 L202.00,158.50 L203.00,158.50 L204.00,158.50 L205.00,158.50 L206.00,158.50 L207.00,158.50 L208.00,158.50 L209.00,158.50 L210.00,158.50 L211.00,158.50 L212.00,158.50 L213.00,158.50 L214.00,158.50 L215.00,158.50 L216.00,158.50 L217.00,158.50 L218.00,158.50 L219.00,158.50 L220.00,158.50 L221.00,158.50 L222.00,158.50 L223.00,158.50 L224.00,158.50 L225.00,158.50 L226.00,158.50 L227.00,158.50 L228.00,158.50 L229.00,158.50 L230.00,158.50 L231.00,158.50 L232.00,158.50 L233.00,158.50 L234.00,158.50 L235.00,158.50 L236.00,158.50 L237.00,158.50 L238.00,158.50 L239.00,158.50 L240.00,158.50 L241.00,158.50 L242.00,158.50 L243.00,158.50 L244.00,158.50 L245.00,158.50 L246.00,158.50 L247.00,158.50 L248.00,158.50 L249.00,158.50 L250.00,158.50 L251.00,158.50 L252.00,158.50 L253.00,158.50 L254.00,158.50 L255.00,158.50 L256.00,158.50 L257.00,158.50 L258.00,158.50 L259.00,158.50 L260.00,158.50 L261.00,158.50 L262.00,158.50 L263.00,158.50 L264.00,158.50 L265.00,158.50 L266.00,158.50 L267.00,158.50 L268.00,158.50 L269.00,158.50 L270.00,158.50 L271.00,158.50 L272.00,158.50 L273.00,158.50 L274.00,158.50 L275.00,158.50 L276.00,158.50 L277.00,158.50 L277.50,158.00 L278.00,157.50 L279.00,157.50 L280.00,157.50 L281.00,157.50 L282.00,157.50 L283.00,157.50 L283.50,157.00 L284.00,156.50 L285.00,156.50 L285.50,156.00 L286.00,155.50 L287.00,155.50 L287.50,155.00 L288.00,154.50 L288.50,154.00 L289.00,153.50 L289.50,153.00 L289.50,152.00 L290.00,151.50 L290.50,151.00 L291.00,150.50 L291.50,150.00 L292.00,149.50 L292.50,149.00 L292.50,148.00 L293.00,147.50 L293.50,147.00 L293.50,146.00 L294.00,145.50 L294.50,145.00 L294.50,144.00 L294.50,143.00 L295.00,142.50 L295.50,142.00 L295.50,141.00 L295.50,140.00 L295.50,139.00 L296.00,138.50 L296.50,138.00 L296.50,137.00 L296.50,136.00 L296.50,135.00 L297.00,134.50 L297.50,134.00 L297.50,133.00 L297.50,132.00 L297.50,131.00 L298.00,130.50 L298.50,130.00 L298.50,129.00 L298.50,128.00 L298.50,127.00 L298.50,126.00 L298.50,125.00 L298.50,124.00 L298.50,123.00 L298.50,122.00 L298.50,121.00 L298.50,120.00 L298.50,119.00 L298.50,118.00 L298.50,117.00 L298.00,116.50 L297.50,116.00 L297.00,115.50 L296.00,115.50 L295.50,115.00 L295.00,114.50 L294.00,114.50 L293.00,114.50 L292.50,114.00 L292.00,113.50 L291.00,113.50 L290.00,113.50 L289.00,113.50 L288.00,113.50 L287.00,113.50 L286.00,113.50 L285.00,113.50 L284.00,113.50 L283.00,113.50 L282.00,113.50 L281.00,113.50 L280.00,113.50 L279.00,113.50 L278.00,113.50 L277.00,113.50 L276.00,113.50 L275.00,113.50 L274.00,113.50 L273.00,113.50 L272.00,113.50 L271.00,113.50 L270.00,113.50 L269.00,113.50 L268.00,113.50 L267.00,113.50 L266.00,113.50 L265.00,113.50 L264.00,113.50 L263.00,113.50 L262.00,113.50 L261.00,113.50 L260.00,113.50 L259.00,113.50 L258.00,113.50 L257.00,113.50 L256.00,113.50 L255.00,113.50 L254.00,113.50 L253.00,113.50 L252.00,113.50 L251.00,113.50 L250.00,113.50 L249.00,113.50 L248.00,113.50 L247.00,113.50 L246.00,113.50 L245.00,113.50 L244.00,113.50 L243.00,113.50 L242.00,113.50 L241.00,113.50 L240.00,113.50 L239.00,113.50 L238.00,113.50 L237.00,113.50 L236.00,113.50 L235.00,113.50 L234.00,113.50 L233.00,113.50 L232.00,113.50 L231.00,113.50 L230.00,113.50 L229.00,113.50 L228.00,113.50 L227.00,113.50 L226.00,113.50 L225.00,113.50 L224.00,113.50 L223.00,113.50 L222.00,113.50 L221.00,113.50 L220.00,113.50 L219.00,113.50 L218.00,113.50 L217.00,113.50 L216.00,113.50 L215.00,113.50 L214.00,113.50 L213.00,113.50 L212.00,113.50 L211.00,113.50 L210.00,113.50 L209.00,113.50 L208.00,113.50 L207.00,113.50 L206.00,113.50 L205.00,113.50 L204.00,113.50 L203.00,113.50 L202.00,113.50 L201.00,113.50 L200.00,113.50 L199.00,113.50 L198.00,113.50 L197.00,113.50 L196.00,113.50 L195.00,113.50 L194.00,113.50 L193.00,113.50 L192.00,113.50 L191.00,113.50 L190.00,113.50 L189.00,113.50 L188.00,113.50 L187.00,113.50 L186.00,113.50 L185.00,113.50 L184.00,113.50 L183.00,113.50 L182.00,113.50 L181.00,113.50 L180.00,113.50 L179.00,113.50 L178.00,113.50 L177.00,113.50 L176.00,113.50 L175.00,113.50 L174.00,113.50 L173.00,113.50 L172.00,113.50 L171.00,113.50 L170.00,113.50 L169.00,113.50 L168.00,113.50 L167.00,113.50 L166.00,113.50 L165.00,113.50 L164.00,113.50 L163.00,113.50 L162.00,113.50 L161.00,113.50 L160.00,113.50 L159.00,113.50 L158.00,113.50 L157.00,113.50 L156.00,113.50 L155.00,113.50 L154.00,113.50 L153.00,113.50 L152.00,113.50 L151.00,113.50 L150.00,113.50 L149.00,113.50 L148.00,113.50 L147.00,113.50 L146.00,113.50 L145.00,113.50 L144.00,113.50 L143.00,113.50 L142.00,113.50 L141.00,113.50 L140.00,113.50 L139.00,113.50 L138.00,113.50 L137.00,113.50 L136.00,113.50 L135.00,113.50 L134.00,113.50 L133.00,113.50 L132.00,113.50 L131.00,113.50 L130.00,113.50 L129.00,113.50 L128.00,113.50 L127.00,113.50 L126.00,113.50 L125.00,113.50 L124.00,113.50 L123.00,113.50 L122.00,113.50 L121.00,113.50 L120.00,113.50 L119.00,113.50 L118.00,113.50 L117.00,113.50 L116.00,113.50 L115.00,113.50 L114.00,113.50 L113.00,113.50 L112.00,113.50 L111.00,113.50 L110.00,113.50 L109.00,113.50 L108.00,113.50 L107.00,113.50 L106.00,113.50 L105.00,113.50 L104.00,113.50 L103.00,113.50 L102.00,113.50 L101.00,113.50 L100.00,113.50 L99.00,113.50 L98.00,113.50 L97.00,113.50 L96.00,113.50 L95.00,113.50 L94.00,113.50 L93.00,113.50 L92.00,113.50 L91.00,113.50 L90.00,113.50 L89.00,113.50 L88.00,113.50 L87.00,113.50 L86.00,113.50 L85.00,113.50 L84.00,113.50 L83.00,113.50 L82.00,113.50 L81.00,113.50 L80.00,113.50 L79.00,113.50 L78.00,113.50 L77.00,113.50 L76.00,113.50 L75.00,113.50 L74.00,113.50 L73.00,113.50 L72.00,113.50 L71.00,113.50 L70.00,113.50 L69.00,113.50 L68.00,113.50 L67.50,113.00 L67.50,112.00 L68.00,111.50 L68.50,111.00 L68.50,110.00 L68.50,109.00 L68.50,108.00 L69.00,107.50 L69.50,107.00 L69.50,106.00 L69.50,105.00 L69.50,104.00 L69.50,103.00 L70.00,102.50 L70.50,102.00 L70.50,101.00 L70.50,100.00 L70.50,99.00 L71.00,98.50 L71.50,98.00 L71.50,97.00 L71.50,96.00 L71.50,95.00 L72.00,94.50 L72.50,94.00 L72.50,93.00 L72.50,92.00 L72.50,91.00 L73.00,90.50 L73.50,90.00 L73.50,89.00 L73.50,88.00 L73.50,87.00 L74.00,86.50 L74.50,86.00 L74.50,85.00 L74.50,84.00 L74.50,83.00 L75.00,82.50 L75.50,82.00 L75.50,81.00 L75.50,80.00 L75.50,79.00 L76.00,78.50 L76.50,78.00 L76.50,77.00 L76.50,76.00 L76.50,75.00 L77.00,74.50 L77.50,74.00 L77.50,73.00 L77.50,72.00 L77.50,71.00 L78.00,70.50 L78.50,70.00 L78.50,69.00 L78.50,68.00 L78.50,67.00 L79.00,66.50 L79.50,66.00 L79.50,65.00 L79.50,64.00 L79.50,63.00 L79.50,62.00 L80.00,61.50 L80.50,61.00 L80.50,60.00 L80.50,59.00 L81.00,58.50 L81.50,58.00 L81.50,57.00 L81.50,56.00 L81.50,55.00 L82.00,54.50 L82.50,54.00 L82.50,53.00 L82.50,52.00 L82.50,51.00 L83.00,50.50 L84.00,50.50 L85.00,50.50 L86.00,50.50 L87.00,50.50 L88.00,50.50 L89.00,50.50 L90.00,50.50 L91.00,50.50 L92.00,50.50 L93.00,50.50 L94.00,50.50 L95.00,50.50 L96.00,50.50 L97.00,50.50 L98.00,50.50 L99.00,50.50 L100.00,50.50 L101.00,50.50 L102.00,50.50 L103.00,50.50 L104.00,50.50 L105.00,50.50 L106.00,50.50 L107.00,50.50 L108.00,50.50 L109.00,50.50 L110.00,50.50 L111.00,50.50 L112.00,50.50 L113.00,50.50 L114.00,50.50 L115.00,50.50 L116.00,50.50 L117.00,50.50 L118.00,50.50 L119.00,50.50 L120.00,50.50 L121.00,50.50 L122.00,50.50 L123.00,50.50 L124.00,50.50 L125.00,50.50 L126.00,50.50 L127.00,50.50 L128.00,50.50 L129.00,50.50 L130.00,50.50 L131.00,50.50 L132.00,50.50 L133.00,50.50 L134.00,50.50 L135.00,50.50 L136.00,50.50 L137.00,50.50 L138.00,50.50 L139.00,50.50 L140.00,50.50 L141.00,50.50 L142.00,50.50 L143.00,50.50 L144.00,50.50 L145.00,50.50 L146.00,50.50 L147.00,50.50 L148.00,50.50 L149.00,50.50 L150.00,50.50 L151.00,50.50 L152.00,50.50 L153.00,50.50 L154.00,50.50 L155.00,50.50 L156.00,50.50 L157.00,50.50 L158.00,50.50 L159.00,50.50 L160.00,50.50 L161.00,50.50 L162.00,50.50 L163.00,50.50 L164.00,50.50 L165.00,50.50 L166.00,50.50 L167.00,50.50 L168.00,50.50 L169.00,50.50 L170.00,50.50 L171.00,50.50 L172.00,50.50 L173.00,50.50 L174.00,50.50 L175.00,50.50 L176.00,50.50 L177.00,50.50 L178.00,50.50 L179.00,50.50 L180.00,50.50 L181.00,50.50 L182.00,50.50 L183.00,50.50 L184.00,50.50 L185.00,50.50 L186.00,50.50 L187.00,50.50 L188.00,50.50 L189.00,50.50 L190.00,50.50 L191.00,50.50 L192.00,50.50 L193.00,50.50 L194.00,50.50 L195.00,50.50 L196.00,50.50 L197.00,50.50 L198.00,50.50 L199.00,50.50 L200.00,50.50 L201.00,50.50 L202.00,50.50 L203.00,50.50 L204.00,50.50 L205.00,50.50 L206.00,50.50 L207.00,50.50 L208.00,50.50 L209.00,50.50 L210.00,50.50 L211.00,50.50 L212.00,50.50 L213.00,50.50 L214.00,50.50 L215.00,50.50 L216.00,50.50 L217.00,50.50 L218.00,50.50 L219.00,50.50 L220.00,50.50 L221.00,50.50 L222.00,50.50 L223.00,50.50 L224.00,50.50 L225.00,50.50 L226.00,50.50 L227.00,50.50 L228.00,50.50 L229.00,50.50 L230.00,50.50 L231.00,50.50 L232.00,50.50 L233.00,50.50 L234.00,50.50 L235.00,50.50 L236.00,50.50 L237.00,50.50 L238.00,50.50 L239.00,50.50 L240.00,50.50 L241.00,50.50 L242.00,50.50 L243.00,50.50 L244.00,50.50 L245.00,50.50 L246.00,50.50 L247.00,50.50 L248.00,50.50 L249.00,50.50 L250.00,50.50 L251.00,50.50 L252.00,50.50 L253.00,50.50 L254.00,50.50 L255.00,50.50 L256.00,50.50 L257.00,50.50 L258.00,50.50 L259.00,50.50 L260.00,50.50 L261.00,50.50 L262.00,50.50 L263.00,50.50 L264.00,50.50 L265.00,50.50 L266.00,50.50 L267.00,50.50 L268.00,50.50 L269.00,50.50 L270.00,50.50 L271.00,50.50 L272.00,50.50 L273.00,50.50 L274.00,50.50 L275.00,50.50 L276.00,50.50 L277.00,50.50 L278.00,50.50 L279.00,50.50 L280.00,50.50 L281.00,50.50 L282.00,50.50 L283.00,50.50 L284.00,50.50 L285.00,50.50 L286.00,50.50 L287.00,50.50 L288.00,50.50 L289.00,50.50 L290.00,50.50 L291.00,50.50 L292.00,50.50 L293.00,50.50 L294.00,50.50 L295.00,50.50 L296.00,50.50 L297.00,50.50 L298.00,50.50 L299.00,50.50 L300.00,50.50 L301.00,50.50 L302.00,50.50 L303.00,50.50 L304.00,50.50 L305.00,50.50 L306.00,50.50 L307.00,50.50 L308.00,50.50 L309.00,50.50 L310.00,50.50 L311.00,50.50 L312.00,50.50 L313.00,50.50 L314.00,50.50 L315.00,50.50 L316.00,50.50 L317.00,50.50 L318.00,50.50 L319.00,50.50 L320.00,50.50 L321.00,50.50 L322.00,50.50 L323.00,50.50 L324.00,50.50 L325.00,50.50 L326.00,50.50 L327.00,50.50 L328.00,50.50 L329.00,50.50 L329.50,51.00 L330.00,51.50 L331.00,51.50 L332.00,51.50 L333.00,51.50 L334.00,51.50 L334.50,52.00 L335.00,52.50 L336.00,52.50 L337.00,52.50 L338.00,52.50 L338.50,53.00 L339.00,53.50 L340.00,53.50 L341.00,53.50 L341.50,54.00 L342.00,54.50 L343.00,54.50 L344.00,54.50 L344.50,55.00 L345.00,55.50 L346.00,55.50 L346.50,56.00 L347.00,56.50 L348.00,56.50 L348.50,57.00 L349.00,57.50 L350.00,57.50 L350.50,58.00 L351.00,58.50 L351.50,59.00 L352.00,59.50 L353.00,59.50 L353.50,60.00 L354.00,60.50 L355.00,60.50 L355.50,61.00 L356.00,61.50 L356.50,62.00 L357.00,62.50 L357.50,63.00 L358.00,63.50 L359.00,63.50 L359.50,64.00 L360.00,64.50 L360.50,65.00 L361.00,65.50 L361.50,66.00 L362.00,66.50 L362.50,67.00 L363.00,67.50 L363.50,68.00 L363.50,69.00 L364.00,69.50 L364.50,70.00 L365.00,70.50 L365.50,71.00 L366.00,71.50 L366.50,72.00 L367.00,72.50 L367.50,73.00 L367.50,74.00 L368.00,74.50 L368.50,75.00 L369.00,75.50 L369.50,76.00 L369.50,77.00 L370.00,77.50 L370.50,78.00 L370.50,79.00 L371.00,79.50 L371.50,80.00 L371.50,81.00 L372.00,81.50 L372.50,82.00 L372.50,83.00 L373.00,83.50 L373.50,84.00 L373.50,85.00 L373.50,86.00 L374.00,86.50 L374.50,87.00 L374.50,88.00 L374.50,89.00 L375.00,89.50 L375.50,90.00 L375.50,91.00 L375.50,92.00 L375.50,93.00 L376.00,93.50 L376.50,94.00 L376.50,95.00 L376.50,96.00 L376.50,97.00 L376.50,98.00 L376.50,99.00 L377.00,99.50 L377.50,100.00 L377.50,101.00 L377.50,102.00 L377.50,103.00 L377.50,104.00 L377.50,105.00 L377.50,106.00 L377.50,107.00 L377.50,108.00 L377.50,109.00 L377.50,110.00 L377.50,111.00 L377.50,112.00 L377.50,113.00 L377.50,114.00 L377.50,115.00 L377.50,116.00 L377.00,116.50 L376.50,117.00 L376.50,118.00 L376.50,119.00 L376.50,120.00 L376.50,121.00 L376.50,122.00 L376.50,123.00 L376.50,124.00 L376.00,124.50 L375.50,125.00 L375.50,126.00 L375.50,127.00 L375.50,128.00 L375.00,128.50 L374.50,129.00 L374.50,130.00 L374.50,131.00 L374.50,132.00 L374.00,132.50 L373.50,133.00 L373.50,134.00 L373.50,135.00 L373.50,136.00 L373.00,136.50 L372.50,137.00 L372.50,138.00 L372.50,139.00 L372.50,140.00 L372.00,140.50 L371.50,141.00 L371.50,142.00 L371.50,143.00 L371.50,144.00 L371.00,144.50 L370.50,145.00 L370.50,146.00 L370.50,147.00 L370.50,148.00 L370.00,148.50 L369.50,149.00 L369.50,150.00 L369.50,151.00 L369.50,152.00 L369.00,152.50 L368.50,153.00 L368.50,154.00 L368.50,155.00 L368.00,155.50 L367.50,156.00 L367.50,157.00 L367.50,158.00 L367.00,158.50 L366.50,159.00 L366.50,160.00 L366.50,161.00 L366.00,161.50 L365.50,162.00 L365.50,163.00 L365.00,163.50 L364.50,164.00 L364.50,165.00 L364.50,166.00 L364.00,166.50 L363.50,167.00 L363.50,168.00 L363.00,168.50 L362.50,169.00 L362.50,170.00 L362.00,170.50 L361.50,171.00 L361.50,172.00 L361.00,172.50 L360.50,173.00 L360.50,174.00 L360.00,174.50 L359.50,175.00 L359.50,176.00 L359.00,176.50 L358.50,177.00 L358.00,177.50 L357.50,178.00 L357.50,179.00 L357.00,179.50 L356.50,180.00 L356.00,180.50 L355.50,181.00 L355.50,182.00 L355.00,182.50 L354.50,183.00 L354.00,183.50 L353.50,184.00 L353.00,184.50 L352.50,185.00 L352.00,185.50 L351.50,186.00 L351.50,187.00 L351.00,187.50 L350.50,188.00 L350.00,188.50 L349.50,189.00 L349.00,189.50 L348.50,190.00 L348.00,190.50 L347.50,191.00 L347.00,191.50 L346.50,192.00 L346.00,192.50 L345.50,193.00 L345.00,193.50 L344.50,194.00 L344.00,194.50 L343.50,195.00 L343.00,195.50 L342.50,196.00 L342.00,196.50 L341.50,197.00 L341.00,197.50 L340.50,198.00 L340.00,198.50 L339.00,198.50 L338.50,199.00 L338.00,199.50 L337.50,200.00 L337.00,200.50 L336.50,201.00 L336.00,201.50 L335.00,201.50 L334.50,202.00 L334.00,202.50 L333.50,203.00 L333.00,203.50 L332.00,203.50 L331.50,204.00 L331.00,204.50 L330.00,204.50 L329.50,205.00 L329.00,205.50 L328.50,206.00 L328.00,206.50 L327.00,206.50 L326.50,207.00 L326.00,207.50 L325.00,207.50 L324.50,208.00 L324.00,208.50 L323.00,208.50 L322.50,209.00 L322.00,209.50 L321.00,209.50 L320.00,209.50 L319.50,210.00 L319.00,210.50 L318.00,210.50 L317.50,211.00 L317.00,211.50 L316.00,211.50 L315.50,212.00 L315.00,212.50 L314.00,212.50 L313.00,212.50 L312.00,212.50 L311.50,213.00 L311.00,213.50 L310.00,213.50 L309.00,213.50 L308.50,214.00 L308.00,214.50 L307.00,214.50 L306.00,214.50 L305.00,214.50 L304.00,214.50 L303.50,215.00 L303.00,215.50 L302.00,215.50 L301.00,215.50 L300.00,215.50 L299.00,215.50 L298.50,216.00 L298.00,216.50 L297.00,216.50 L296.00,216.50 L295.00,216.50 L294.00,216.50 L293.00,216.50 L292.00,216.50 L291.50,217.00 L291.00,217.50 L290.00,217.50 L289.00,217.50 L288.00,217.50 L287.00,217.50 L286.00,217.50 L285.00,217.50 L284.00,217.50 L283.00,217.50 L282.00,217.50 L281.00,217.50 L280.00,217.50 L279.00,217.50 L278.00,217.50 L277.00,217.50 L276.00,217.50 L275.00,217.50 L274.00,217.50 L273.00,217.50 L272.00,217.50 L271.00,217.50 L270.00,217.50 L269.00,217.50 L268.00,217.50 L267.00,217.50 L266.00,217.50 L265.00,217.50 L264.00,217.50 L263.00,217.50 L262.00,217.50 L261.00,217.50 L260.00,217.50 L259.00,217.50 L258.00,217.50 L257.00,217.50 L256.00,217.50 L255.00,217.50 L254.00,217.50 L253.00,217.50 L252.00,217.50 L251.00,217.50 L250.00,217.50 L249.00,217.50 L248.00,217.50 L247.00,217.50 L246.00,217.50 L245.00,217.50 L244.00,217.50 L243.00,217.50 L242.00,217.50 L241.00,217.50 L240.00,217.50 L239.00,217.50 L238.00,217.50 L237.00,217.50 L236.00,217.50 L235.00,217.50 L234.00,217.50 L233.00,217.50 L232.00,217.50 L231.00,217.50 L230.00,217.50 L229.00,217.50 L228.00,217.50 L227.00,217.50 L226.00,217.50 L225.00,217.50 L224.00,217.50 L223.00,217.50 L222.00,217.50 L221.00,217.50 L220.00,217.50 L219.00,217.50 L218.00,217.50 L217.00,217.50 L216.00,217.50 L215.00,217.50 L214.00,217.50 L213.00,217.50 L212.00,217.50 L211.00,217.50 L210.00,217.50 L209.00,217.50 L208.00,217.50 L207.00,217.50 L206.00,217.50 L205.00,217.50 L204.00,217.50 L203.00,217.50 L202.00,217.50 L201.00,217.50 L200.00,217.50 L199.00,217.50 L198.00,217.50 L197.00,217.50 L196.00,217.50 L195.00,217.50 L194.00,217.50 L193.00,217.50 L192.00,217.50 L191.00,217.50 L190.00,217.50 L189.00,217.50 L188.00,217.50 L187.00,217.50 L186.00,217.50 L185.00,217.50 L184.00,217.50 L183.00,217.50 L182.00,217.50 L181.00,217.50 L180.00,217.50 L179.00,217.50 L178.00,217.50 L177.00,217.50 L176.00,217.50 L175.00,217.50 L174.00,217.50 L173.00,217.50 L172.00,217.50 L171.00,217.50 L170.00,217.50 L169.50,218.00 L169.00,218.50 L168.00,218.50 L167.00,218.50 L166.50,219.00 L166.00,219.50 L165.00,219.50 L164.00,219.50 L163.50,220.00 L163.00,220.50 L162.00,220.50 L161.50,221.00 L161.00,221.50 L160.50,222.00 L160.00,222.50 L159.00,222.50 L158.50,223.00 L158.00,223.50 L157.50,224.00 L157.00,224.50 L156.50,225.00 L156.00,225.50 L155.50,226.00 L155.00,226.50 L154.50,227.00 L154.00,227.50 L153.50,228.00 L153.50,229.00 L153.00,229.50 L152.50,230.00 L152.00,230.50 L151.50,231.00 L151.50,232.00 L151.00,232.50 L150.50,233.00 L150.50,234.00 L150.00,234.50 L149.50,235.00 L149.50,236.00 L149.50,237.00 L149.00,237.50 L148.50,238.00 L148.50,239.00 L148.50,240.00 L148.00,240.50 L147.50,241.00 L147.50,242.00 L147.50,243.00 L147.50,244.00 L147.00,244.50 L146.50,245.00 L146.50,246.00 L146.50,247.00 L146.50,248.00 L146.00,248.50 L145.50,249.00 L145.50,250.00 L145.50,251.00 L145.50,252.00 L145.50,253.00 L145.00,253.50 L144.50,254.00 L144.50,255.00 L144.50,256.00 L144.50,257.00 L144.00,257.50 L143.50,258.00 L143.50,259.00 L143.50,260.00 L143.50,261.00 L143.00,261.50 L142.50,262.00 L142.50,263.00 L142.50,264.00 L142.00,264.50 L141.50,265.00 L141.50,266.00 L141.50,267.00 L141.50,268.00 L141.50,269.00 L141.00,269.50 L140.50,270.00 L140.50,271.00 L140.50,272.00 L140.00,272.50 L139.50,273.00 L139.50,274.00 L139.50,275.00 L139.50,276.00 L139.00,276.50 L138.50,277.00 L138.50,278.00 L138.50,279.00 L138.50,280.00 L138.00,280.50 L137.50,281.00 L137.50,282.00 L137.50,283.00 L137.50,284.00 L137.00,284.50 L136.50,285.00 L136.50,286.00 L136.50,287.00 L136.50,288.00 L136.00,288.50 L135.50,289.00 L135.50,290.00 L135.50,291.00 L135.50,292.00 L135.00,292.50 L134.50,293.00 L134.50,294.00 L134.50,295.00 L134.50,296.00 L134.00,296.50 L133.50,297.00 L133.50,298.00 L133.50,299.00 L133.50,300.00 L133.50,301.00 L133.00,301.50 L132.50,302.00 L132.50,303.00 L132.50,304.00 L132.00,304.50 L131.50,305.00 L131.50,306.00 L131.50,307.00 L131.50,308.00 L131.00,308.50 L130.50,309.00 L130.50,310.00 L130.50,311.00 L130.50,312.00 L130.50,313.00 L130.00,313.50 L129.50,314.00 L129.50,315.00 L129.50,316.00 L129.00,316.50 L128.50,317.00 L128.50,318.00 L128.50,319.00 L128.50,320.00 L128.50,321.00 L128.00,321.50 L127.50,322.00 L127.50,323.00 L127.50,324.00 L127.00,324.50 L126.50,325.00 L126.50,326.00 L126.50,327.00 L126.50,328.00 L126.00,328.50 L125.50,329.00 L125.50,330.00 L125.50,331.00 L125.50,332.00 L125.50,333.00 L125.00,333.50 L124.50,334.00 L124.50,335.00 L124.50,336.00 L124.50,337.00 L124.00,337.50 L123.50,338.00 L123.00,338.50 Z" fill="#147BFF"/><path d="M352.00,338.50 L351.00,338.50 L350.00,338.50 L349.00,338.50 L348.00,338.50 L347.00,338.50 L346.00,338.50 L345.00,338.50 L344.00,338.50 L343.00,338.50 L342.00,338.50 L341.00,338.50 L340.00,338.50 L339.00,338.50 L338.00,338.50 L337.00,338.50 L336.00,338.50 L335.00,338.50 L334.00,338.50 L333.00,338.50 L332.00,338.50 L331.00,338.50 L330.00,338.50 L329.00,338.50 L328.00,338.50 L327.00,338.50 L326.00,338.50 L325.00,338.50 L324.00,338.50 L323.00,338.50 L322.00,338.50 L321.00,338.50 L320.00,338.50 L319.00,338.50 L318.00,338.50 L317.00,338.50 L316.00,338.50 L315.00,338.50 L314.00,338.50 L313.00,338.50 L312.00,338.50 L311.00,338.50 L310.00,338.50 L309.00,338.50 L308.00,338.50 L307.00,338.50 L306.00,338.50 L305.00,338.50 L304.00,338.50 L303.00,338.50 L302.00,338.50 L301.00,338.50 L300.00,338.50 L299.00,338.50 L298.00,338.50 L297.00,338.50 L296.00,338.50 L295.00,338.50 L294.00,338.50 L293.00,338.50 L292.00,338.50 L291.00,338.50 L290.00,338.50 L289.00,338.50 L288.00,338.50 L287.00,338.50 L286.00,338.50 L285.00,338.50 L284.00,338.50 L283.00,338.50 L282.00,338.50 L281.00,338.50 L280.00,338.50 L279.00,338.50 L278.00,338.50 L277.00,338.50 L276.00,338.50 L275.00,338.50 L274.00,338.50 L273.00,338.50 L272.00,338.50 L271.00,338.50 L270.00,338.50 L269.00,338.50 L268.00,338.50 L267.00,338.50 L266.00,338.50 L265.00,338.50 L264.00,338.50 L263.00,338.50 L262.00,338.50 L261.00,338.50 L260.00,338.50 L259.00,338.50 L258.00,338.50 L257.00,338.50 L256.00,338.50 L255.00,338.50 L254.00,338.50 L253.00,338.50 L252.00,338.50 L251.00,338.50 L250.00,338.50 L249.00,338.50 L248.00,338.50 L247.00,338.50 L246.00,338.50 L245.00,338.50 L244.00,338.50 L243.00,338.50 L242.00,338.50 L241.00,338.50 L240.00,338.50 L239.00,338.50 L238.00,338.50 L237.00,338.50 L236.00,338.50 L235.00,338.50 L234.00,338.50 L233.00,338.50 L232.00,338.50 L231.00,338.50 L230.00,338.50 L229.00,338.50 L228.00,338.50 L227.00,338.50 L226.00,338.50 L225.00,338.50 L224.00,338.50 L223.00,338.50 L222.00,338.50 L221.00,338.50 L220.00,338.50 L219.00,338.50 L218.00,338.50 L217.00,338.50 L216.00,338.50 L215.00,338.50 L214.00,338.50 L213.00,338.50 L212.00,338.50 L211.00,338.50 L210.00,338.50 L209.00,338.50 L208.00,338.50 L207.00,338.50 L206.00,338.50 L205.00,338.50 L204.00,338.50 L203.00,338.50 L202.00,338.50 L201.00,338.50 L200.00,338.50 L199.00,338.50 L198.00,338.50 L197.00,338.50 L196.00,338.50 L195.00,338.50 L194.00,338.50 L193.00,338.50 L192.00,338.50 L191.00,338.50 L190.00,338.50 L189.00,338.50 L188.00,338.50 L187.00,338.50 L186.00,338.50 L185.00,338.50 L184.00,338.50 L183.00,338.50 L182.00,338.50 L181.00,338.50 L180.00,338.50 L179.00,338.50 L178.00,338.50 L177.00,338.50 L176.00,338.50 L175.00,338.50 L174.00,338.50 L173.00,338.50 L172.00,338.50 L171.00,338.50 L170.00,338.50 L169.00,338.50 L168.00,338.50 L167.00,338.50 L166.00,338.50 L165.50,338.00 L165.50,337.00 L165.50,336.00 L166.00,335.50 L166.50,335.00 L166.50,334.00 L166.50,333.00 L166.50,332.00 L167.00,331.50 L167.50,331.00 L167.50,330.00 L167.50,329.00 L167.50,328.00 L168.00,327.50 L168.50,327.00 L168.50,326.00 L168.50,325.00 L169.00,324.50 L169.50,324.00 L169.50,323.00 L169.50,322.00 L169.50,321.00 L169.50,320.00 L170.00,319.50 L170.50,319.00 L170.50,318.00 L170.50,317.00 L170.50,316.00 L171.00,315.50 L171.50,315.00 L171.50,314.00 L171.50,313.00 L171.50,312.00 L172.00,311.50 L172.50,311.00 L172.50,310.00 L172.50,309.00 L172.50,308.00 L173.00,307.50 L173.50,307.00 L173.50,306.00 L173.50,305.00 L173.50,304.00 L174.00,303.50 L174.50,303.00 L174.50,302.00 L174.50,301.00 L174.50,300.00 L175.00,299.50 L175.50,299.00 L175.50,298.00 L175.50,297.00 L175.50,296.00 L175.50,295.00 L176.00,294.50 L176.50,294.00 L176.50,293.00 L176.50,292.00 L177.00,291.50 L177.50,291.00 L177.50,290.00 L177.50,289.00 L177.50,288.00 L178.00,287.50 L178.50,287.00 L178.50,286.00 L178.50,285.00 L178.50,284.00 L179.00,283.50 L179.50,283.00 L179.50,282.00 L179.50,281.00 L179.50,280.00 L180.00,279.50 L180.50,279.00 L180.50,278.00 L180.50,277.00 L180.50,276.00 L181.00,275.50 L181.50,275.00 L181.50,274.00 L181.50,273.00 L181.50,272.00 L182.00,271.50 L182.50,271.00 L182.50,270.00 L182.50,269.00 L182.50,268.00 L183.00,267.50 L183.50,267.00 L183.50,266.00 L183.50,265.00 L183.50,264.00 L184.00,263.50 L184.50,263.00 L184.50,262.00 L185.00,261.50 L185.50,261.00 L185.50,260.00 L186.00,259.50 L186.50,259.00 L186.50,258.00 L187.00,257.50 L187.50,257.00 L188.00,256.50 L188.50,256.00 L189.00,255.50 L189.50,255.00 L190.00,254.50 L190.50,254.00 L191.00,253.50 L192.00,253.50 L192.50,253.00 L193.00,252.50 L194.00,252.50 L194.50,252.00 L195.00,251.50 L196.00,251.50 L196.50,251.00 L197.00,250.50 L198.00,250.50 L199.00,250.50 L200.00,250.50 L201.00,250.50 L202.00,250.50 L203.00,250.50 L204.00,250.50 L205.00,250.50 L206.00,250.50 L207.00,250.50 L208.00,250.50 L209.00,250.50 L210.00,250.50 L211.00,250.50 L212.00,250.50 L213.00,250.50 L214.00,250.50 L215.00,250.50 L216.00,250.50 L217.00,250.50 L218.00,250.50 L219.00,250.50 L220.00,250.50 L221.00,250.50 L222.00,250.50 L223.00,250.50 L224.00,250.50 L225.00,250.50 L226.00,250.50 L227.00,250.50 L228.00,250.50 L229.00,250.50 L230.00,250.50 L231.00,250.50 L232.00,250.50 L233.00,250.50 L234.00,250.50 L235.00,250.50 L236.00,250.50 L237.00,250.50 L238.00,250.50 L239.00,250.50 L240.00,250.50 L241.00,250.50 L242.00,250.50 L243.00,250.50 L244.00,250.50 L245.00,250.50 L246.00,250.50 L247.00,250.50 L248.00,250.50 L249.00,250.50 L250.00,250.50 L251.00,250.50 L252.00,250.50 L253.00,250.50 L254.00,250.50 L255.00,250.50 L256.00,250.50 L257.00,250.50 L258.00,250.50 L259.00,250.50 L260.00,250.50 L261.00,250.50 L262.00,250.50 L263.00,250.50 L264.00,250.50 L264.50,251.00 L264.50,252.00 L264.00,252.50 L263.50,253.00 L263.50,254.00 L263.50,255.00 L263.00,255.50 L262.50,256.00 L262.50,257.00 L262.50,258.00 L262.50,259.00 L262.00,259.50 L261.50,260.00 L261.50,261.00 L261.50,262.00 L261.00,262.50 L260.50,263.00 L260.50,264.00 L260.50,265.00 L260.50,266.00 L260.00,266.50 L259.50,267.00 L259.50,268.00 L259.50,269.00 L259.50,270.00 L259.00,270.50 L258.50,271.00 L258.50,272.00 L258.50,273.00 L258.50,274.00 L258.50,275.00 L258.00,275.50 L257.50,276.00 L257.50,277.00 L257.50,278.00 L257.50,279.00 L258.00,279.50 L259.00,279.50 L260.00,279.50 L261.00,279.50 L262.00,279.50 L263.00,279.50 L264.00,279.50 L265.00,279.50 L266.00,279.50 L267.00,279.50 L268.00,279.50 L269.00,279.50 L270.00,279.50 L271.00,279.50 L272.00,279.50 L273.00,279.50 L274.00,279.50 L275.00,279.50 L276.00,279.50 L277.00,279.50 L278.00,279.50 L279.00,279.50 L280.00,279.50 L281.00,279.50 L282.00,279.50 L283.00,279.50 L284.00,279.50 L285.00,279.50 L286.00,279.50 L287.00,279.50 L288.00,279.50 L289.00,279.50 L290.00,279.50 L291.00,279.50 L292.00,279.50 L293.00,279.50 L294.00,279.50 L295.00,279.50 L296.00,279.50 L297.00,279.50 L298.00,279.50 L299.00,279.50 L300.00,279.50 L301.00,279.50 L302.00,279.50 L303.00,279.50 L304.00,279.50 L305.00,279.50 L306.00,279.50 L307.00,279.50 L308.00,279.50 L309.00,279.50 L310.00,279.50 L311.00,279.50 L312.00,279.50 L313.00,279.50 L314.00,279.50 L315.00,279.50 L316.00,279.50 L317.00,279.50 L318.00,279.50 L319.00,279.50 L320.00,279.50 L321.00,279.50 L322.00,279.50 L323.00,279.50 L324.00,279.50 L325.00,279.50 L326.00,279.50 L327.00,279.50 L328.00,279.50 L329.00,279.50 L330.00,279.50 L331.00,279.50 L332.00,279.50 L333.00,279.50 L334.00,279.50 L335.00,279.50 L336.00,279.50 L337.00,279.50 L338.00,279.50 L339.00,279.50 L340.00,279.50 L341.00,279.50 L342.00,279.50 L343.00,279.50 L344.00,279.50 L345.00,279.50 L346.00,279.50 L347.00,279.50 L348.00,279.50 L349.00,279.50 L350.00,279.50 L351.00,279.50 L352.00,279.50 L353.00,279.50 L354.00,279.50 L355.00,279.50 L356.00,279.50 L357.00,279.50 L358.00,279.50 L359.00,279.50 L360.00,279.50 L361.00,279.50 L362.00,279.50 L363.00,279.50 L364.00,279.50 L365.00,279.50 L366.00,279.50 L366.50,280.00 L366.00,280.50 L365.50,281.00 L365.50,282.00 L365.50,283.00 L365.50,284.00 L365.50,285.00 L365.00,285.50 L364.50,286.00 L364.50,287.00 L364.50,288.00 L364.00,288.50 L363.50,289.00 L363.50,290.00 L363.50,291.00 L363.50,292.00 L363.50,293.00 L363.00,293.50 L362.50,294.00 L362.50,295.00 L362.50,296.00 L362.00,296.50 L361.50,297.00 L361.50,298.00 L361.50,299.00 L361.50,300.00 L361.50,301.00 L361.00,301.50 L360.50,302.00 L360.50,303.00 L360.50,304.00 L360.50,305.00 L360.00,305.50 L359.50,306.00 L359.50,307.00 L359.50,308.00 L359.50,309.00 L359.00,309.50 L358.50,310.00 L358.50,311.00 L358.50,312.00 L358.50,313.00 L358.00,313.50 L357.50,314.00 L357.50,315.00 L357.50,316.00 L357.50,317.00 L357.00,317.50 L356.50,318.00 L356.50,319.00 L356.50,320.00 L356.50,321.00 L356.00,321.50 L355.50,322.00 L355.50,323.00 L355.50,324.00 L355.50,325.00 L355.00,325.50 L354.50,326.00 L354.50,327.00 L354.50,328.00 L354.50,329.00 L354.50,330.00 L354.00,330.50 L353.50,331.00 L353.50,332.00 L353.50,333.00 L353.50,334.00 L353.00,334.50 L352.50,335.00 L352.50,336.00 L352.50,337.00 L352.50,338.00 L352.00,338.50 Z" fill="#147BFF"/>
</svg>